<?xml version="1.0" encoding="UTF-8"?>
<svg width="684px" height="684px" viewBox="0 0 684 684" version="1.1" xmlns="http://www.w3.org/2000/svg" xmlns:xlink="http://www.w3.org/1999/xlink">
    <title>Combined Shape</title>
    <g id="Page-1" stroke="none" stroke-width="1" fill="none" fill-rule="evenodd">
        <g id="Frame" transform="translate(-170, -161)" fill="#000000" fill-rule="nonzero">
            <path d="M580.3753,171.273986 C591.50778,183.831418 590.32066,203.039584 577.7628,214.172021 L440.2484,335.801954 L747.6,335.801954 C806.3518,335.801954 854,383.449971 854,442.201546 L854,738.600408 C854,797.351983 806.3518,845 747.6,845 L276.4,845 C217.6482,845 170,797.351983 170,738.600408 L170,442.201546 C170,383.449971 217.6482,335.801954 276.4,335.801954 L348.48144,335.801954 L537.44746,168.63178 C550.03458,157.499343 569.24282,158.686458 580.3753,171.273986 Z M747.60266,396.600505 L276.40266,396.600505 C251.22766,396.600505 230.80266,417.025427 230.80266,442.20033 L230.80266,738.599192 C230.80266,763.774096 251.22766,784.199017 276.40266,784.199017 L747.60266,784.199017 C772.77766,784.199017 793.20266,763.774096 793.20266,738.599192 L793.20266,442.20033 C793.20266,417.025427 772.77766,396.600505 747.60266,396.600505 Z M626.00266,476.400959 C688.97018,476.400959 740.00266,527.433243 740.00266,590.400521 C740.00266,653.3678 688.97018,704.400084 626.00266,704.400084 C563.03514,704.400084 512.00266,653.3678 512.00266,590.400521 C512.00266,527.433243 563.03514,476.400959 626.00266,476.400959 Z M413.20266,617.000419 C430.0055,617.000419 443.60266,630.597527 443.60266,647.400302 C443.60266,664.203078 430.0055,677.800186 413.20266,677.800186 L314.40266,677.800186 C297.59982,677.800186 284.00266,664.203078 284.00266,647.400302 C284.00266,630.597527 297.59982,617.000419 314.40266,617.000419 L413.20266,617.000419 Z M626.00266,537.200725 C596.61194,537.200725 572.80266,561.009914 572.80266,590.400521 C572.80266,619.791128 596.61194,643.600317 626.00266,643.600317 C655.39338,643.600317 679.20266,619.791128 679.20266,590.400521 C679.20266,561.009914 655.39338,537.200725 626.00266,537.200725 Z M413.20266,503.000857 C430.0055,503.000857 443.60266,516.597964 443.60266,533.40074 C443.60266,550.203515 430.0055,563.800623 413.20266,563.800623 L314.40266,563.800623 C297.59982,563.800623 284.00266,550.203515 284.00266,533.40074 C284.00266,516.597964 297.59982,503.000857 314.40266,503.000857 L413.20266,503.000857 Z" id="Combined-Shape"></path>
        </g>
    </g>
</svg>