<?xml version="1.0" encoding="UTF-8"?>
<svg width="680px" height="482px" viewBox="0 0 680 482" version="1.1" xmlns="http://www.w3.org/2000/svg" xmlns:xlink="http://www.w3.org/1999/xlink">
    <title>Shape</title>
    <g id="Page-1" stroke="none" stroke-width="1" fill="none" fill-rule="evenodd">
        <g id="app-icon" transform="translate(-172, -271)" fill="#000000" fill-rule="nonzero">
            <path d="M512.335852,403.073446 C452.436742,403.073446 403.42838,452.090395 403.42838,512 C403.42838,571.909605 452.436742,620.926554 512.335852,620.926554 C572.234962,620.926554 621.243325,571.909605 621.243325,512 C621.243325,452.090395 572.234962,403.073446 512.335852,403.073446 Z M271.378069,271 C210.117615,332.951977 172,418.050847 172,512 C172,605.949153 210.117615,691.048023 271.378069,753 L357.823375,666.539548 C319.025088,626.372881 294.520907,571.909605 294.520907,512 C294.520907,452.090395 319.025088,397.627119 358.504047,358.141243 L271.378069,271 Z M753.293636,271 L666.167658,358.141243 C705.646617,397.627119 730.150798,452.090395 730.150798,512 C730.150798,571.909605 705.646617,626.372881 666.167658,665.858757 L752.612964,752.319209 C813.873418,691.048023 851.991033,605.949153 851.991033,511.319209 C852.671705,418.050847 814.554089,332.951977 753.293636,271 Z" id="Shape"></path>
        </g>
    </g>
</svg>